<svg xmlns="http://www.w3.org/2000/svg" fill="none" viewBox="0 0 1440 1535">
  <path stroke="#ffdc43" stroke-width="124" d="M1492 60-4.2208 210.156c-11.6859 1.173-12.1334 18.043-.526 19.833L1538.92 468.107c11.53 1.778 11.2 18.491-.38 19.818l-1800.796 206.27c-11.717 1.342-11.859 18.311-.167 19.85L1627.96 962.746c11.77 1.549 11.51 18.679-.31 19.864l-1846.307 185.18c-11.751 1.18-12.108 18.18-.417 19.85L1777 1473"/>
  <path fill="#fff" d="M218 187.848c-.898-29.502-1.631-30.234-31-31.14 29.369-.902 30.098-1.639 31-31.141.897 29.502 1.631 30.235 31 31.141-29.369.906-30.098 1.629-31 31.14M735 472.132c-1.419-46.632-2.578-47.79-49-49.222 46.422-1.425 47.574-2.59 49-49.222 1.419 46.632 2.578 47.79 49 49.222-46.422 1.432-47.574 2.576-49 49.222M288 935.224c-.955-31.406-1.736-32.185-33-33.15 31.264-.96 32.04-1.744 33-33.15.955 31.406 1.736 32.185 33 33.15-31.264.965-32.04 1.735-33 33.15"/>
</svg>
