<svg xmlns="http://www.w3.org/2000/svg" fill="none" viewBox="0 0 143 22">
  <path fill="#fff" d="M9.374 16.451 13.997.2853h5.1792l-7.1197 20.7743H8.6749zM5.165.2853 9.7735 16.451l.7277 4.6086H7.0769L-.0001.2853zm38.7034 9.9306v.9274q0 2.3685-.6564 4.2519-.642 1.8834-1.8405 3.2103-1.1842 1.3269-2.8251 2.0403-1.6266.6991-3.6098.6991-1.9833 0-3.6241-.6991-1.6409-.7134-2.8536-2.0403-1.1985-1.3269-1.8548-3.2103t-.6564-4.2519v-.9274q0-2.3685.6564-4.2519.6562-1.8976 1.8405-3.2246 1.1986-1.327 2.8394-2.026Q32.9248 0 34.9081 0t3.624.7134q1.6409.699 2.8251 2.026 1.1985 1.327 1.8548 3.2246.6564 1.8834.6564 4.2519m-4.6942.9274v-.956q0-1.5837-.2854-2.7965-.2853-1.227-.8275-2.0546-.5422-.8275-1.3412-1.2413-.799-.428-1.812-.428-1.0559 0-1.8406.428-.7848.4138-1.3269 1.2413-.528.8276-.8133 2.0546-.2712 1.2128-.2711 2.7965v.956q0 1.5695.2711 2.7965.2853 1.2128.8275 2.0546t1.3269 1.2699q.799.428 1.8549.428 1.013 0 1.7978-.428.799-.4281 1.3412-1.2699.5421-.8417.8132-2.0546.2854-1.227.2854-2.7965M67.519 17.464v3.5956H52.6375V17.464zm-.1569-14.696L54.8205 21.0596h-3.3102v-2.5397L64.166.2853h3.1961zM65.8211.2853v3.6099H51.4818V.2853zm16.6023 20.7743h-4.5658l.0286-3.5956h4.5372q1.5552 0 2.6253-.7134 1.0701-.7276 1.6266-2.1402.5564-1.4268.5564-3.4671v-.956q0-1.541-.3139-2.7109-.3139-1.1843-.9274-1.9832t-1.5267-1.1985q-.8989-.3995-2.0688-.3995H77.772V.2853h4.6229q2.1116 0 3.8523.7134 1.755.7134 3.0248 2.0404 1.2841 1.327 1.9833 3.139t.6991 4.0378v.9274q0 2.2116-.6991 4.0378-.6992 1.8121-1.9833 3.139-1.2698 1.3127-3.0105 2.0261t-3.8381.7134M80.4972.2853v20.7743h-4.6514V.2853zm31.5128 0h4.651v13.6403c0 1.617-.343 2.9772-1.027 4.0806-.676 1.1034-1.617 1.9357-2.825 2.4969s-2.607.8418-4.195.8418q-2.397 0-4.224-.8418-1.812-.8418-2.853-2.4969c-.685-1.1034-1.027-2.4636-1.027-4.0806V.2853h4.665v13.6403c0 .8941.133 1.6265.4 2.1972.276.5612.67.975 1.184 1.2414.514.2568 1.132.3852 1.855.3852s1.336-.1284 1.84-.3852c.514-.2664.899-.6802 1.156-1.2414.266-.5707.4-1.3031.4-2.1972zm27.759 8.3611v3.5955h-10.758V8.6464zm-9.288-8.361v20.7742h-4.651V.2853zm12.499 0v20.7742h-4.637V.2853z"/>
</svg>
