<svg xmlns="http://www.w3.org/2000/svg" xmlns:xlink="http://www.w3.org/1999/xlink" fill="none" viewBox="0 0 145 35">
  <g clip-path="url(#a)">
    <path fill="#fff" d="m9.521 22.3914 4.6228-16.1656h5.1793L12.2034 27H8.8219zM5.312 6.2258l4.6085 16.1656L10.6482 27H7.2238L.147 6.2258zm38.7033 9.9305v.9274q0 2.3685-.6563 4.2519-.642 1.8834-1.8406 3.2103-1.1843 1.3269-2.825 2.0403-1.6266.6992-3.6098.6992-1.9833 0-3.6241-.6992-1.6409-.7134-2.8536-2.0403-1.1985-1.3269-1.8549-3.2103-.6563-1.8834-.6563-4.2519v-.9274q0-2.3685.6563-4.2519.6564-1.8977 1.8406-3.2245 1.1985-1.327 2.8393-2.026 1.6409-.7135 3.6241-.7135 1.9833 0 3.6241.7134 1.6409.6991 2.8251 2.026 1.1985 1.327 1.8548 3.2246.6564 1.8834.6563 4.2519m-4.6941.9274v-.9559q0-1.5838-.2854-2.7966-.2854-1.227-.8275-2.0546-.5423-.8274-1.3412-1.2413-.799-.428-1.8121-.428-1.0558 0-1.8405.428-.7848.4139-1.327 1.2413-.5279.8276-.8133 2.0546-.271 1.2128-.271 2.7966v.9559q0 1.5695.271 2.7966.2854 1.2127.8276 2.0546.5423.8418 1.3269 1.2698.799.428 1.8549.428 1.013 0 1.7977-.428.799-.428 1.3412-1.2698t.8133-2.0546q.2854-1.227.2854-2.7966m28.3448 6.3208V27H52.7845v-3.5955zm-.157-14.696L54.9675 27h-3.3102v-2.5397L64.313 6.2258h3.196zm-1.5409-2.4827v3.6098H51.6287V6.2258zM82.5704 27h-4.5658l.0285-3.5955h4.5373q1.5552 0 2.6253-.7134 1.0701-.7278 1.6265-2.1402.5565-1.4269.5565-3.4672v-.9559q0-1.541-.3139-2.7109-.314-1.1843-.9274-1.9833-.6135-.799-1.5267-1.1985-.899-.3995-2.0689-.3995H77.919V6.2258h4.6228q2.1117 0 3.8524.7134 1.755.7134 3.0248 2.0403 1.2841 1.3269 1.9833 3.139t.6991 4.0378v.9274q0 2.2116-.6991 4.0379-.6992 1.812-1.9833 3.1389-1.2699 1.3127-3.0105 2.0261Q84.6677 27 82.5704 27M80.6442 6.2258V27h-4.6514V6.2258zm31.5128 0h4.651V19.866c0 1.617-.343 2.9773-1.027 4.0806-.676 1.1034-1.617 1.9357-2.825 2.4969-1.209.5613-2.607.8419-4.195.8419q-2.397 0-4.224-.8419-1.812-.8418-2.853-2.4969c-.685-1.1033-1.028-2.4636-1.028-4.0806V6.2258h4.666V19.866c0 .8941.133 1.6265.4 2.1973.275.5612.67.9749 1.184 1.2413.514.2568 1.132.3852 1.855.3852s1.336-.1284 1.84-.3852c.514-.2664.899-.6801 1.156-1.2413.266-.5708.4-1.3032.4-2.1973zm27.759 8.361v3.5956h-10.758v-3.5956zm-9.288-8.361V27h-4.651V6.2258zm12.499 0V27h-4.637V6.2258z"/>
  </g>
  <defs>
    <clipPath id="a">
      <path fill="#fff" d="M0 0h145v35H0z"/>
    </clipPath>
  </defs>
</svg>
