<svg xmlns="http://www.w3.org/2000/svg" width="1440" height="401" fill="none"><g fill="#FDCF01" clip-path="url(#a)"><path d="m1246.82 126.772 139.8 12.97-3.91 42.126-139.8-12.97zm123.4 11.448 4.84.449 7.26-1.207 30.59 6.599c-2.82 14.277-6.37 29.49-10.62 45.639a3371 3371 0 0 1-12.4 48.483c-4.25 16.149-8.55 31.417-12.89 45.804l-41.34-8.347q4.875-16.092 9.96-34.421 5.085-18.328 9.39-36.353 4.71-18.364 8.43-34.186 4.14-16.161 6.36-27.987zm-1.74 95.72 55.17 5.119-3.7 39.889-67.1-6.225zm43.62 4.047 8.94.83 7.56-.427 27.44 12.321q-15.84 61.323-42.36 103.984-26.145 42.695-61.65 68.73c-23.42 17.379-49.54 29.997-78.34 37.853-1.66-3.664-4.01-8.143-7.02-13.436a263 263 0 0 0-9.13-15.135q-4.965-7.23-9.06-11.745c27.17-6.503 51.44-16.785 72.8-30.847 21.36-14.061 39.51-32.806 54.47-56.235q22.845-35.48 35.55-87.319zm-101.55-56.422c.91 19.887 2.8 39.991 5.68 60.312a389 389 0 0 0 13.31 59.14q9 28.659 24.24 54.889c10.18 17.238 22.88 33.08 38.08 47.526 15.48 14.22 34.03 26.344 55.66 36.372-3.26 2.705-6.97 6.246-11.14 10.623a727 727 0 0 0-11.79 13.57c-3.96 4.897-7.26 9.354-9.89 13.371-21.96-11.814-40.73-25.712-56.29-41.695-15.31-15.96-28.12-33.316-38.41-52.068a317.5 317.5 0 0 1-24.26-58.652 445 445 0 0 1-13.75-62.564c-3.03-21.338-5.1-42.335-6.19-62.991zm-157.13-49.17 86.49 8.024-19.68 212.122-86.48-8.024 3.83-41.381 46.23 4.289 12-129.361-46.22-4.288zm-23.48-2.179 39.89 3.701-22.48 242.318-39.89-3.701zm143.92 21.248 45 5.304c-2.57 22.321-5.57 45.23-9.01 68.725a659 659 0 0 1-13.95 69.394c-5.63 22.791-12.9 44.426-21.82 64.905-8.92 20.48-19.91 39.012-32.98 55.597-12.82 16.608-28.39 30.455-46.72 41.539-1.96-3.19-4.61-7.071-7.94-11.641a270 270 0 0 0-10.83-13.037q-5.445-6.145-9.6-9.915 25.035-14.598 42.54-37.038 17.49-22.442 29.07-49.944c7.74-18.583 13.95-38.186 18.62-58.809s8.24-41.599 10.72-62.926q4.095-31.958 6.9-62.154M859.79 253.676l218.83 20.302-3.91 42.126-218.828-20.302zm96.592-121.137 44.738 4.151-23.071 248.655q-1.626 17.521-6.964 26.427-5 9.312-16.668 13.493t-28.21 4.151-39.654-2.175q-.661-9.085-3.925-22.548-3.297-13.09-7.721-22.149a1320 1320 0 0 0 29.347 3.851q14.54 1.349 19.42 1.426 5.22.485 7.222-.834 2.037-1.692 2.486-6.538zm100.128-37.71 26.44 39.3c-14.51 2.414-30.25 4.464-47.2 6.15-16.68 1.461-33.94 2.491-51.796 3.091q-26.78.899-53.456.68a2100 2100 0 0 1-51.792-1.045q-.391-7.932-3.117-19.089-2.69-11.53-5.389-18.924 24.405.383 49.625.092a1434 1434 0 0 0 50.135-1.365q24.916-1.073 46.92-3.168 22.035-2.467 39.63-5.722m-16.69 66.507 42.47 16.349a785 785 0 0 1-16.02 30.85c-5.49 10.521-10.93 20.544-16.33 30.07-5.37 9.278-10.51 17.449-15.43 24.513l-34.38-14.47c4.74-7.833 9.44-16.671 14.12-26.515a619 619 0 0 0 14.16-31.023c4.49-10.612 8.29-20.537 11.41-29.774m-167.559 2.504 38.048-8.879q5.534 13.299 9.743 28.729 4.615 15.091 7.368 30.012 2.787 14.547 3.205 26.242l-40.796 10.127q.327-11.626-2.052-26.511t-6.588-30.316q-3.801-15.769-8.928-29.404m-92.762-61.999 81.643 7.574-19.852 213.986-81.643-7.575 3.839-41.38 42.126 3.908 12.209-131.597-42.126-3.908zm-22.367-2.075 39.143 3.631-22.723 244.928-39.143-3.632zM632.701 99.501a299 299 0 0 0-18.767 11.796q-9.197 5.914-16.053 10.918-9.977 6.219-23.993 15.447a12339 12339 0 0 1-28.813 18.759 3427 3427 0 0 0-28.813 18.759q-14.017 9.228-24.097 16.565-10.488 7.675-14.362 12.956-3.84 4.907-.969 10.438 3.244 5.565 12.48 15.446 7.543 7.844 19.251 19.458 12.08 11.649 25.815 25.707a1311 1311 0 0 1 28.556 28.594q14.82 14.535 28.148 28.932 13.736 14.058 24.255 26.315l-47.318 35.842a1055 1055 0 0 0-29.217-37.679q-7.779-9.37-20.431-22.952-12.244-13.92-26.995-29.201a3078 3078 0 0 0-28.79-30.119q-14.378-15.246-26.05-27.233-17.187-17.387-21.569-30.954-4.009-13.531 3.878-25.584 8.294-12.391 28.351-25.946 11.98-7.537 27.218-17.779a3767 3767 0 0 1 31.327-21.535 5778 5778 0 0 0 30.58-21.603q14.528-10.684 24.678-18.767a1060 1060 0 0 0 17.959-15.254q8.997-7.814 13.686-13.77zM92.248 194.124l237.099 21.996-3.701 39.89-237.099-21.997zM233.77 62.867l41.008 3.805-5.43 58.529q-.623 6.71.695 8.712t6.538 2.487l3.355.311 5.592.519 5.965.553 4.1.381q4.474.415 6.788-4.258 2.348-5.047 4.823-23.617 5.176 4.992 15.607 10.096 10.431 5.103 18.425 8.101-3.663 19.212-9.547 29.947-5.476 10.397-14.093 14.109-8.209 3.374-20.884 2.198l-6.71-.622-8.575-.796-8.574-.795-6.71-.623q-17.15-1.59-26.088-6.556-8.905-5.338-11.327-15.715-2.013-10.715-.423-27.864zM109.725 17.895l235.981 21.893-6.018 64.866-40.262-3.735 2.594-27.96-156.948-14.56-3.528 38.025-38.77-3.597zm79.961 147.292 43.99 4.081-18.089 194.973-43.99-4.081zm-17.088-107.62 41.38 3.84q-3.297 23.382-9.162 42.015-5.83 18.26-17.244 31.864-11.007 13.267-29.87 22.045-18.862 8.779-48.598 13.164-1.545-7.663-7.356-17.979-5.404-10.653-10.815-17.171 24.309-2.633 39.132-8.402 15.196-5.734 23.213-15.143 8.425-9.746 12.652-22.89 4.262-13.517 6.668-31.342m69.407 171.883q8.102 18.047 21.084 36.172 13.356 18.16 29.936 33.986 16.952 15.86 34.355 26.876-5.565 3.243-12.153 9.4a290 290 0 0 0-12.767 11.976q-5.876 6.599-10.157 12.218-17.534-13.659-33.36-33.552-15.827-19.892-29.14-42.56-12.94-22.632-21.304-45.969zm-67.027-11.107 33.971 14.808q-14.281 24.243-33.54 45.393-19.258 21.15-41.83 37.48-22.198 16.365-47.164 26.081-4.493-8.313-11.76-19.14-7.269-10.826-13.39-17.786 23.232-7.245 44.746-20.289t39.274-30.197 29.693-36.35M14.182 30.463 42.949.043Q53.683 5.927 65.363 13.78A445 445 0 0 1 88.315 29.82q10.9 8.155 16.987 15.489L74.768 78.572Q69.053 71.274 58.56 62.78 48.475 53.95 36.865 45.351T14.182 30.463m-25.541 101.032 26.364-32.899q11.211 4.8 23.367 11.568 12.564 6.43 23.905 13.874 11.376 7.071 18.28 13.728l-27.864 36.896q-6.495-6.995-17.43-14.778-10.56-7.747-23.02-15.296-12.088-7.513-23.602-13.093m-7.558 182.789Q-8.25 300.61 3.988 282.193q12.645-18.756 25.903-40.086 13.26-21.33 24.958-42.053l31.842 29.651a1778 1778 0 0 1-22.037 38.94 3242 3242 0 0 1-23.19 39.209q-11.56 19.231-23.32 36.565z"/><path stroke="#FDCF01" stroke-width="31" d="M1486.5 397.5.5 260v182h1486z"/></g><defs><clipPath id="a"><path fill="#fff" d="M0 0h1440v401H0z"/></clipPath></defs></svg>